<svg width="243" height="48" viewBox="0 0 243 48" fill="none" xmlns="http://www.w3.org/2000/svg">
<g filter="url(#filter0_d_26_504)">
<path d="M54.0352 11.9375H56.8242L61.4883 24.7812L66.1406 11.9375H68.9414L62.6016 29H60.3633L54.0352 11.9375ZM52.6289 11.9375H55.3594L55.8516 23.7383V29H52.6289V11.9375ZM67.6055 11.9375H70.3477V29H67.125V23.7383L67.6055 11.9375ZM79.0898 29.2344C78.1289 29.2344 77.2656 29.0781 76.5 28.7656C75.7344 28.4531 75.082 28.0195 74.543 27.4648C74.0117 26.9023 73.6016 26.25 73.3125 25.5078C73.0312 24.7578 72.8906 23.9531 72.8906 23.0938V22.625C72.8906 21.6484 73.0312 20.7617 73.3125 19.9648C73.5938 19.1602 73.9922 18.4688 74.5078 17.8906C75.0234 17.3125 75.6406 16.8672 76.3594 16.5547C77.0781 16.2422 77.8711 16.0859 78.7383 16.0859C79.6367 16.0859 80.4297 16.2383 81.1172 16.543C81.8047 16.8398 82.3789 17.2617 82.8398 17.8086C83.3008 18.3555 83.6484 19.0117 83.8828 19.7773C84.1172 20.5352 84.2344 21.375 84.2344 22.2969V23.5977H74.2969V21.4648H81.1875V21.2305C81.1719 20.7383 81.0781 20.2891 80.9062 19.8828C80.7344 19.4688 80.4688 19.1406 80.1094 18.8984C79.75 18.6484 79.2852 18.5234 78.7148 18.5234C78.2539 18.5234 77.8516 18.625 77.5078 18.8281C77.1719 19.0234 76.8906 19.3047 76.6641 19.6719C76.4453 20.0312 76.2812 20.4609 76.1719 20.9609C76.0625 21.4609 76.0078 22.0156 76.0078 22.625V23.0938C76.0078 23.625 76.0781 24.1172 76.2188 24.5703C76.3672 25.0234 76.582 25.418 76.8633 25.7539C77.1523 26.082 77.4961 26.3398 77.8945 26.5273C78.3008 26.707 78.7617 26.7969 79.2773 26.7969C79.9258 26.7969 80.5117 26.6719 81.0352 26.4219C81.5664 26.1641 82.0273 25.7852 82.418 25.2852L83.9766 26.9023C83.7109 27.293 83.3516 27.668 82.8984 28.0273C82.4531 28.3867 81.9141 28.6797 81.2812 28.9062C80.6484 29.125 79.918 29.2344 79.0898 29.2344ZM93.9141 26.3047V11H97.0312V29H94.2188L93.9141 26.3047ZM85.7695 22.8125V22.5664C85.7695 21.5977 85.8789 20.7188 86.0977 19.9297C86.3242 19.1328 86.6523 18.4492 87.082 17.8789C87.5117 17.3086 88.0312 16.8672 88.6406 16.5547C89.2578 16.2422 89.957 16.0859 90.7383 16.0859C91.4961 16.0859 92.1562 16.2383 92.7188 16.543C93.2891 16.8477 93.7734 17.2812 94.1719 17.8438C94.5781 18.4062 94.9023 19.0742 95.1445 19.8477C95.3867 20.6133 95.5625 21.457 95.6719 22.3789V23.0469C95.5625 23.9453 95.3867 24.7695 95.1445 25.5195C94.9023 26.2695 94.5781 26.9258 94.1719 27.4883C93.7734 28.043 93.2891 28.4727 92.7188 28.7773C92.1484 29.082 91.4805 29.2344 90.7148 29.2344C89.9414 29.2344 89.2461 29.0742 88.6289 28.7539C88.0195 28.4336 87.5 27.9844 87.0703 27.4062C86.6484 26.8281 86.3242 26.1484 86.0977 25.3672C85.8789 24.5859 85.7695 23.7344 85.7695 22.8125ZM88.875 22.5664V22.8125C88.875 23.3594 88.9219 23.8711 89.0156 24.3477C89.1094 24.8242 89.2617 25.2461 89.4727 25.6133C89.6836 25.9727 89.9531 26.2539 90.2812 26.457C90.6172 26.6602 91.0234 26.7617 91.5 26.7617C92.1094 26.7617 92.6094 26.6289 93 26.3633C93.3984 26.0898 93.707 25.7188 93.9258 25.25C94.1445 24.7734 94.2852 24.2383 94.3477 23.6445V21.8047C94.3164 21.3359 94.2344 20.9023 94.1016 20.5039C93.9766 20.1055 93.7969 19.7617 93.5625 19.4727C93.3359 19.1836 93.0547 18.957 92.7188 18.793C92.3828 18.6289 91.9844 18.5469 91.5234 18.5469C91.0469 18.5469 90.6406 18.6523 90.3047 18.8633C89.9688 19.0664 89.6953 19.3516 89.4844 19.7188C89.2734 20.0859 89.1172 20.5117 89.0156 20.9961C88.9219 21.4805 88.875 22.0039 88.875 22.5664ZM103.113 16.3203V29H100.008V16.3203H103.113ZM99.7969 13.0039C99.7969 12.543 99.9531 12.1602 100.266 11.8555C100.586 11.5508 101.016 11.3984 101.555 11.3984C102.094 11.3984 102.52 11.5508 102.832 11.8555C103.152 12.1602 103.312 12.543 103.312 13.0039C103.312 13.457 103.152 13.8359 102.832 14.1406C102.52 14.4453 102.094 14.5977 101.555 14.5977C101.016 14.5977 100.586 14.4453 100.266 14.1406C99.9531 13.8359 99.7969 13.457 99.7969 13.0039ZM117.129 26.4688V29H108.551V26.4688H117.129ZM109.523 11.9375V29H106.301V11.9375H109.523ZM126.035 26.3047V20.457C126.035 20.0273 125.961 19.6562 125.812 19.3438C125.664 19.0312 125.438 18.7891 125.133 18.6172C124.828 18.4453 124.441 18.3594 123.973 18.3594C123.559 18.3594 123.195 18.4297 122.883 18.5703C122.578 18.7109 122.344 18.9102 122.18 19.168C122.016 19.418 121.934 19.707 121.934 20.0352H118.828C118.828 19.5117 118.953 19.0156 119.203 18.5469C119.453 18.0703 119.809 17.6484 120.27 17.2812C120.738 16.9062 121.297 16.6133 121.945 16.4023C122.602 16.1914 123.336 16.0859 124.148 16.0859C125.109 16.0859 125.965 16.25 126.715 16.5781C127.473 16.8984 128.066 17.3828 128.496 18.0312C128.934 18.6797 129.152 19.4961 129.152 20.4805V26.0117C129.152 26.6445 129.191 27.1875 129.27 27.6406C129.355 28.0859 129.48 28.4727 129.645 28.8008V29H126.492C126.344 28.6797 126.23 28.2734 126.152 27.7812C126.074 27.2812 126.035 26.7891 126.035 26.3047ZM126.469 21.2773L126.492 23.1172H124.535C124.051 23.1172 123.625 23.168 123.258 23.2695C122.891 23.3633 122.59 23.5039 122.355 23.6914C122.121 23.8711 121.945 24.0898 121.828 24.3477C121.711 24.5977 121.652 24.8828 121.652 25.2031C121.652 25.5156 121.723 25.7969 121.863 26.0469C122.012 26.2969 122.223 26.4961 122.496 26.6445C122.777 26.7852 123.105 26.8555 123.48 26.8555C124.027 26.8555 124.504 26.7461 124.91 26.5273C125.316 26.3008 125.633 26.0273 125.859 25.707C126.086 25.3867 126.207 25.082 126.223 24.793L127.113 26.1289C127.004 26.4492 126.84 26.7891 126.621 27.1484C126.402 27.5078 126.121 27.8438 125.777 28.1562C125.434 28.4688 125.02 28.7266 124.535 28.9297C124.051 29.1328 123.488 29.2344 122.848 29.2344C122.027 29.2344 121.293 29.0703 120.645 28.7422C119.996 28.4141 119.484 27.9648 119.109 27.3945C118.734 26.8242 118.547 26.1758 118.547 25.4492C118.547 24.7773 118.672 24.1836 118.922 23.668C119.172 23.1523 119.543 22.7188 120.035 22.3672C120.527 22.0078 121.137 21.7383 121.863 21.5586C122.598 21.3711 123.438 21.2773 124.383 21.2773H126.469ZM131.93 11H135.035V26.1992L134.73 29H131.93V11ZM143.191 22.5312V22.7773C143.191 23.7227 143.086 24.5898 142.875 25.3789C142.672 26.168 142.363 26.8516 141.949 27.4297C141.535 28 141.02 28.4453 140.402 28.7656C139.793 29.0781 139.078 29.2344 138.258 29.2344C137.477 29.2344 136.797 29.082 136.219 28.7773C135.648 28.4727 135.168 28.043 134.777 27.4883C134.387 26.9258 134.074 26.2656 133.84 25.5078C133.605 24.7422 133.43 23.9062 133.312 23V22.332C133.43 21.418 133.605 20.582 133.84 19.8242C134.074 19.0664 134.387 18.4062 134.777 17.8438C135.168 17.2812 135.648 16.8477 136.219 16.543C136.789 16.2383 137.461 16.0859 138.234 16.0859C139.062 16.0859 139.785 16.2461 140.402 16.5664C141.027 16.8789 141.543 17.3242 141.949 17.9023C142.363 18.4727 142.672 19.1523 142.875 19.9414C143.086 20.7227 143.191 21.5859 143.191 22.5312ZM140.086 22.7773V22.5312C140.086 21.9922 140.043 21.4844 139.957 21.0078C139.871 20.5234 139.73 20.0977 139.535 19.7305C139.34 19.3633 139.074 19.0742 138.738 18.8633C138.402 18.6523 137.98 18.5469 137.473 18.5469C136.988 18.5469 136.574 18.6289 136.23 18.793C135.895 18.957 135.613 19.1836 135.387 19.4727C135.168 19.7617 134.996 20.1016 134.871 20.4922C134.754 20.8828 134.676 21.3047 134.637 21.7578V23.5859C134.691 24.1875 134.82 24.7305 135.023 25.2148C135.227 25.6914 135.527 26.0703 135.926 26.3516C136.332 26.6328 136.855 26.7734 137.496 26.7734C137.996 26.7734 138.414 26.6758 138.75 26.4805C139.086 26.2773 139.352 25.9961 139.547 25.6367C139.742 25.2695 139.879 24.8438 139.957 24.3594C140.043 23.875 140.086 23.3477 140.086 22.7773ZM162.973 18.9805V21.5117H153.996V18.9805H162.973ZM154.875 11.9375V29H151.652V11.9375H154.875ZM165.363 11.9375V29H162.141V11.9375H165.363ZM167.859 22.7891V22.543C167.859 21.6133 167.992 20.7578 168.258 19.9766C168.523 19.1875 168.91 18.5039 169.418 17.9258C169.926 17.3477 170.547 16.8984 171.281 16.5781C172.016 16.25 172.852 16.0859 173.789 16.0859C174.742 16.0859 175.586 16.25 176.32 16.5781C177.062 16.8984 177.688 17.3477 178.195 17.9258C178.703 18.5039 179.09 19.1875 179.355 19.9766C179.621 20.7578 179.754 21.6133 179.754 22.543V22.7891C179.754 23.7109 179.621 24.5664 179.355 25.3555C179.09 26.1367 178.703 26.8203 178.195 27.4062C177.688 27.9844 177.066 28.4336 176.332 28.7539C175.598 29.0742 174.758 29.2344 173.812 29.2344C172.875 29.2344 172.035 29.0742 171.293 28.7539C170.551 28.4336 169.926 27.9844 169.418 27.4062C168.91 26.8203 168.523 26.1367 168.258 25.3555C167.992 24.5664 167.859 23.7109 167.859 22.7891ZM170.953 22.543V22.7891C170.953 23.3438 171.008 23.8633 171.117 24.3477C171.227 24.832 171.395 25.2578 171.621 25.625C171.848 25.9922 172.141 26.2812 172.5 26.4922C172.867 26.6953 173.305 26.7969 173.812 26.7969C174.312 26.7969 174.742 26.6953 175.102 26.4922C175.461 26.2812 175.754 25.9922 175.98 25.625C176.215 25.2578 176.387 24.832 176.496 24.3477C176.605 23.8633 176.66 23.3438 176.66 22.7891V22.543C176.66 21.9961 176.605 21.4844 176.496 21.0078C176.387 20.5234 176.215 20.0977 175.98 19.7305C175.754 19.3555 175.457 19.0625 175.09 18.8516C174.73 18.6328 174.297 18.5234 173.789 18.5234C173.289 18.5234 172.859 18.6328 172.5 18.8516C172.141 19.0625 171.848 19.3555 171.621 19.7305C171.395 20.0977 171.227 20.5234 171.117 21.0078C171.008 21.4844 170.953 21.9961 170.953 22.543ZM188.977 25.5312C188.977 25.2656 188.906 25.0273 188.766 24.8164C188.625 24.6055 188.359 24.4141 187.969 24.2422C187.586 24.0625 187.023 23.8945 186.281 23.7383C185.625 23.5977 185.02 23.4219 184.465 23.2109C183.91 23 183.434 22.7461 183.035 22.4492C182.637 22.1445 182.324 21.7891 182.098 21.3828C181.879 20.9688 181.77 20.4922 181.77 19.9531C181.77 19.4297 181.883 18.9375 182.109 18.4766C182.336 18.0078 182.664 17.5977 183.094 17.2461C183.523 16.8867 184.047 16.6055 184.664 16.4023C185.281 16.1914 185.977 16.0859 186.75 16.0859C187.828 16.0859 188.754 16.2617 189.527 16.6133C190.309 16.9648 190.906 17.4492 191.32 18.0664C191.734 18.6758 191.941 19.3633 191.941 20.1289H188.848C188.848 19.793 188.77 19.4883 188.613 19.2148C188.465 18.9414 188.234 18.7227 187.922 18.5586C187.609 18.3867 187.215 18.3008 186.738 18.3008C186.309 18.3008 185.945 18.3711 185.648 18.5117C185.359 18.6523 185.141 18.8359 184.992 19.0625C184.844 19.2891 184.77 19.5391 184.77 19.8125C184.77 20.0156 184.809 20.1992 184.887 20.3633C184.973 20.5195 185.109 20.6641 185.297 20.7969C185.484 20.9297 185.738 21.0508 186.059 21.1602C186.387 21.2695 186.789 21.375 187.266 21.4766C188.211 21.6641 189.035 21.9141 189.738 22.2266C190.449 22.5312 191.004 22.9375 191.402 23.4453C191.801 23.9531 192 24.6016 192 25.3906C192 25.9531 191.879 26.4688 191.637 26.9375C191.395 27.3984 191.043 27.8008 190.582 28.1445C190.121 28.4883 189.57 28.7578 188.93 28.9531C188.289 29.1406 187.566 29.2344 186.762 29.2344C185.598 29.2344 184.613 29.0273 183.809 28.6133C183.004 28.1914 182.395 27.6602 181.98 27.0195C181.566 26.3711 181.359 25.6992 181.359 25.0039H184.324C184.348 25.4961 184.48 25.8906 184.723 26.1875C184.965 26.4844 185.27 26.6992 185.637 26.832C186.012 26.957 186.406 27.0195 186.82 27.0195C187.289 27.0195 187.684 26.957 188.004 26.832C188.324 26.6992 188.566 26.5234 188.73 26.3047C188.895 26.0781 188.977 25.8203 188.977 25.5312ZM197.449 18.7578V33.875H194.344V16.3203H197.215L197.449 18.7578ZM205.594 22.5312V22.7773C205.594 23.6992 205.484 24.5547 205.266 25.3438C205.055 26.125 204.742 26.8086 204.328 27.3945C203.914 27.9727 203.398 28.4258 202.781 28.7539C202.172 29.0742 201.469 29.2344 200.672 29.2344C199.891 29.2344 199.211 29.0859 198.633 28.7891C198.055 28.4844 197.566 28.0547 197.168 27.5C196.77 26.9453 196.449 26.3008 196.207 25.5664C195.973 24.8242 195.797 24.0156 195.68 23.1406V22.3555C195.797 21.4258 195.973 20.582 196.207 19.8242C196.449 19.0586 196.77 18.3984 197.168 17.8438C197.566 17.2812 198.051 16.8477 198.621 16.543C199.199 16.2383 199.875 16.0859 200.648 16.0859C201.453 16.0859 202.16 16.2383 202.77 16.543C203.387 16.8477 203.906 17.2852 204.328 17.8555C204.75 18.4258 205.066 19.1055 205.277 19.8945C205.488 20.6836 205.594 21.5625 205.594 22.5312ZM202.488 22.7773V22.5312C202.488 21.9688 202.438 21.4492 202.336 20.9727C202.234 20.4883 202.078 20.0664 201.867 19.707C201.656 19.3398 201.383 19.0547 201.047 18.8516C200.711 18.6484 200.305 18.5469 199.828 18.5469C199.352 18.5469 198.941 18.625 198.598 18.7812C198.254 18.9375 197.973 19.1602 197.754 19.4492C197.535 19.7383 197.363 20.082 197.238 20.4805C197.121 20.8711 197.043 21.3047 197.004 21.7812V23.7266C197.074 24.3047 197.211 24.8242 197.414 25.2852C197.617 25.7461 197.914 26.1133 198.305 26.3867C198.703 26.6602 199.219 26.7969 199.852 26.7969C200.328 26.7969 200.734 26.6914 201.07 26.4805C201.406 26.2695 201.68 25.9805 201.891 25.6133C202.102 25.2383 202.254 24.8086 202.348 24.3242C202.441 23.8398 202.488 23.3242 202.488 22.7773ZM211.137 16.3203V29H208.031V16.3203H211.137ZM207.82 13.0039C207.82 12.543 207.977 12.1602 208.289 11.8555C208.609 11.5508 209.039 11.3984 209.578 11.3984C210.117 11.3984 210.543 11.5508 210.855 11.8555C211.176 12.1602 211.336 12.543 211.336 13.0039C211.336 13.457 211.176 13.8359 210.855 14.1406C210.543 14.4453 210.117 14.5977 209.578 14.5977C209.039 14.5977 208.609 14.4453 208.289 14.1406C207.977 13.8359 207.82 13.457 207.82 13.0039ZM220.09 16.3203V18.5469H212.824V16.3203H220.09ZM214.77 13.2031H217.875V25.3438C217.875 25.7188 217.926 26.0078 218.027 26.2109C218.129 26.4141 218.281 26.5508 218.484 26.6211C218.688 26.6914 218.93 26.7266 219.211 26.7266C219.414 26.7266 219.602 26.7148 219.773 26.6914C219.945 26.668 220.09 26.6445 220.207 26.6211L220.219 28.9414C219.961 29.0273 219.668 29.0977 219.34 29.1523C219.02 29.207 218.656 29.2344 218.25 29.2344C217.555 29.2344 216.945 29.1172 216.422 28.8828C215.898 28.6406 215.492 28.2539 215.203 27.7227C214.914 27.1836 214.77 26.4727 214.77 25.5898V13.2031ZM229.137 26.3047V20.457C229.137 20.0273 229.062 19.6562 228.914 19.3438C228.766 19.0312 228.539 18.7891 228.234 18.6172C227.93 18.4453 227.543 18.3594 227.074 18.3594C226.66 18.3594 226.297 18.4297 225.984 18.5703C225.68 18.7109 225.445 18.9102 225.281 19.168C225.117 19.418 225.035 19.707 225.035 20.0352H221.93C221.93 19.5117 222.055 19.0156 222.305 18.5469C222.555 18.0703 222.91 17.6484 223.371 17.2812C223.84 16.9062 224.398 16.6133 225.047 16.4023C225.703 16.1914 226.438 16.0859 227.25 16.0859C228.211 16.0859 229.066 16.25 229.816 16.5781C230.574 16.8984 231.168 17.3828 231.598 18.0312C232.035 18.6797 232.254 19.4961 232.254 20.4805V26.0117C232.254 26.6445 232.293 27.1875 232.371 27.6406C232.457 28.0859 232.582 28.4727 232.746 28.8008V29H229.594C229.445 28.6797 229.332 28.2734 229.254 27.7812C229.176 27.2812 229.137 26.7891 229.137 26.3047ZM229.57 21.2773L229.594 23.1172H227.637C227.152 23.1172 226.727 23.168 226.359 23.2695C225.992 23.3633 225.691 23.5039 225.457 23.6914C225.223 23.8711 225.047 24.0898 224.93 24.3477C224.812 24.5977 224.754 24.8828 224.754 25.2031C224.754 25.5156 224.824 25.7969 224.965 26.0469C225.113 26.2969 225.324 26.4961 225.598 26.6445C225.879 26.7852 226.207 26.8555 226.582 26.8555C227.129 26.8555 227.605 26.7461 228.012 26.5273C228.418 26.3008 228.734 26.0273 228.961 25.707C229.188 25.3867 229.309 25.082 229.324 24.793L230.215 26.1289C230.105 26.4492 229.941 26.7891 229.723 27.1484C229.504 27.5078 229.223 27.8438 228.879 28.1562C228.535 28.4688 228.121 28.7266 227.637 28.9297C227.152 29.1328 226.59 29.2344 225.949 29.2344C225.129 29.2344 224.395 29.0703 223.746 28.7422C223.098 28.4141 222.586 27.9648 222.211 27.3945C221.836 26.8242 221.648 26.1758 221.648 25.4492C221.648 24.7773 221.773 24.1836 222.023 23.668C222.273 23.1523 222.645 22.7188 223.137 22.3672C223.629 22.0078 224.238 21.7383 224.965 21.5586C225.699 21.3711 226.539 21.2773 227.484 21.2773H229.57ZM238.324 11V29H235.219V11H238.324Z" fill="black"/>
</g>
<g filter="url(#filter1_d_26_504)">
<path d="M34 40V37.1428C34 36.7676 33.9354 36.3961 33.8097 36.0494C33.6841 35.7029 33.5 35.3879 33.2679 35.1224C33.0356 34.8571 32.76 34.6467 32.4568 34.5031C32.1534 34.3596 31.8283 34.2857 31.5 34.2857H21.4993C18.1841 34.2857 15.0047 32.7806 12.6604 30.1015C10.3162 27.4224 8.99918 23.7889 8.99913 20C8.99913 18.124 9.32246 16.2663 9.95066 14.5331C10.5789 12.7998 11.4996 11.225 12.6604 9.89843C13.8211 8.57189 15.1991 7.51963 16.7157 6.80172C18.2323 6.0838 19.8578 5.71433 21.4993 5.71435H31.4993C31.8276 5.71445 32.1529 5.64064 32.4562 5.49711C32.7596 5.35357 33.0354 5.14313 33.2675 4.87781C33.4998 4.61247 33.6839 4.29746 33.8097 3.95076C33.9354 3.60406 34 3.23246 34 2.85717V0H21.4999C19.2017 -1.50743e-10 16.9261 0.517317 14.8029 1.52241C12.6797 2.52751 10.7505 4.00071 9.12554 5.85787C7.50051 7.71505 6.21148 9.91984 5.33204 12.3464C4.45261 14.7729 3.99998 17.3736 4 20C4 25.3042 5.84372 30.3914 9.12557 34.1421C12.4074 37.8928 16.8586 40 21.4999 40H34Z" fill="url(#paint0_linear_26_504)"/>
<path d="M13.9993 20C13.9993 22.2733 14.7894 24.4533 16.1959 26.0606C17.6024 27.6681 19.51 28.5711 21.499 28.5711H34.0001C35.3262 28.5711 36.5978 29.1732 37.5355 30.2448C38.4731 31.3164 39 32.7699 39 34.2854V39.9998H44.0001V34.2857C44.0001 31.2547 42.9465 28.3478 41.0712 26.2044C39.1957 24.0612 36.6522 22.8572 34.0001 22.8572H21.4994C20.8363 22.8572 20.2004 22.5561 19.7316 22.0204C19.2627 21.4845 18.9993 20.7578 18.9993 20C18.9993 19.2422 19.2627 18.5155 19.7316 17.9797C20.2004 17.4438 20.8363 17.1428 21.4994 17.1428H34.0001C36.6522 17.1428 39.1957 15.9388 41.0712 13.7955C42.9465 11.6523 44.0001 8.74536 44.0001 5.71435V0H38.9992V5.71435C38.9992 7.22967 38.4726 8.68297 37.5351 9.75455C36.5976 10.8261 35.3261 11.4282 34.0001 11.4285H21.4994C20.5144 11.4284 19.5391 11.6501 18.6292 12.0808C17.7192 12.5116 16.8923 13.143 16.1959 13.9389C15.4994 14.7348 14.947 15.6798 14.5701 16.7198C14.1932 17.7597 13.9992 18.8744 13.9993 20Z" fill="url(#paint1_linear_26_504)"/>
</g>
<defs>
<filter id="filter0_d_26_504" x="48.6289" y="11" width="193.695" height="30.875" filterUnits="userSpaceOnUse" color-interpolation-filters="sRGB">
<feFlood flood-opacity="0" result="BackgroundImageFix"/>
<feColorMatrix in="SourceAlpha" type="matrix" values="0 0 0 0 0 0 0 0 0 0 0 0 0 0 0 0 0 0 127 0" result="hardAlpha"/>
<feOffset dy="4"/>
<feGaussianBlur stdDeviation="2"/>
<feComposite in2="hardAlpha" operator="out"/>
<feColorMatrix type="matrix" values="0 0 0 0 0 0 0 0 0 0 0 0 0 0 0 0 0 0 0.25 0"/>
<feBlend mode="normal" in2="BackgroundImageFix" result="effect1_dropShadow_26_504"/>
<feBlend mode="normal" in="SourceGraphic" in2="effect1_dropShadow_26_504" result="shape"/>
</filter>
<filter id="filter1_d_26_504" x="0" y="0" width="48" height="48" filterUnits="userSpaceOnUse" color-interpolation-filters="sRGB">
<feFlood flood-opacity="0" result="BackgroundImageFix"/>
<feColorMatrix in="SourceAlpha" type="matrix" values="0 0 0 0 0 0 0 0 0 0 0 0 0 0 0 0 0 0 127 0" result="hardAlpha"/>
<feOffset dy="4"/>
<feGaussianBlur stdDeviation="2"/>
<feComposite in2="hardAlpha" operator="out"/>
<feColorMatrix type="matrix" values="0 0 0 0 0 0 0 0 0 0 0 0 0 0 0 0 0 0 0.25 0"/>
<feBlend mode="normal" in2="BackgroundImageFix" result="effect1_dropShadow_26_504"/>
<feBlend mode="normal" in="SourceGraphic" in2="effect1_dropShadow_26_504" result="shape"/>
</filter>
<linearGradient id="paint0_linear_26_504" x1="8.53" y1="20" x2="47.0201" y2="20" gradientUnits="userSpaceOnUse">
<stop stop-color="#817696"/>
<stop offset="1" stop-color="#817698"/>
</linearGradient>
<linearGradient id="paint1_linear_26_504" x1="8.50913" y1="19.9999" x2="47.0301" y2="19.9999" gradientUnits="userSpaceOnUse">
<stop stop-color="#8575D2"/>
<stop offset="1" stop-color="#9083D5"/>
</linearGradient>
</defs>
</svg>
