<svg width="18" height="18" viewBox="0 0 18 18" fill="none" xmlns="http://www.w3.org/2000/svg">
<g clip-path="url(#clip0_44_1359)">
<path d="M17.4864 12.7195L13.5489 11.032C13.3807 10.9603 13.1937 10.9452 13.0162 10.989C12.8386 11.0327 12.6801 11.133 12.5645 11.2746L10.8207 13.4051C8.08409 12.1148 5.88171 9.91238 4.59141 7.17573L6.72187 5.43198C6.86379 5.31655 6.96424 5.15803 7.00801 4.98041C7.05178 4.8028 7.03649 4.61575 6.96445 4.4476L5.27695 0.510104C5.19789 0.328841 5.05806 0.180846 4.88157 0.0916383C4.70508 0.00243042 4.50299 -0.0223989 4.31016 0.0214317L0.653906 0.865182C0.467989 0.908114 0.302114 1.0128 0.183352 1.16214C0.0645909 1.31149 -4.28277e-05 1.49668 2.12914e-08 1.68749C2.12914e-08 10.7051 7.30898 18 16.3125 18C16.5034 18.0001 16.6886 17.9355 16.8381 17.8167C16.9875 17.698 17.0922 17.5321 17.1352 17.3461L17.9789 13.6898C18.0225 13.4961 17.9971 13.2932 17.9072 13.1161C17.8173 12.939 17.6685 12.7987 17.4864 12.7195Z" fill="black"/>
</g>
<defs>
<clipPath id="clip0_44_1359">
<rect width="18" height="18" fill="white"/>
</clipPath>
</defs>
</svg>
